M48
; DRILL file KiCad 10.0.3 date 2026-06-04T21:11:39
; FORMAT={-:-/ absolute / metric / decimal}
; #@! TF.CreationDate,2026-06-04T21:11:39+02:00
; #@! TF.GenerationSoftware,Kicad,Pcbnew,10.0.3
; #@! TF.FileFunction,Plated,1,2,PTH
FMAT,2
METRIC
; #@! TA.AperFunction,Plated,PTH,ViaDrill
T1C0.300
; #@! TA.AperFunction,Plated,PTH,ComponentDrill
T2C0.800
; #@! TA.AperFunction,Plated,PTH,ComponentDrill
T3C1.000
; #@! TA.AperFunction,Plated,PTH,ComponentDrill
T4C1.300
%
G90
G05
T1
X77.0Y-66.0
X77.0Y-87.0
X122.0Y-87.0
T2
X81.6Y-74.06
X81.6Y-76.6
X81.6Y-79.14
X81.6Y-81.68
X81.6Y-84.22
X81.6Y-86.76
X81.6Y-89.3
X81.6Y-91.84
X81.6Y-94.38
X81.6Y-96.92
X81.6Y-99.46
X81.6Y-102.0
X81.6Y-104.54
X81.6Y-107.08
X81.6Y-109.62
X81.6Y-112.16
X81.6Y-114.7
X81.6Y-117.24
X81.6Y-119.78
X106.996Y-117.237
X106.996Y-119.777
X107.0Y-74.06
X107.0Y-76.6
X107.0Y-79.14
X107.0Y-81.68
X107.0Y-84.22
X107.0Y-86.76
X107.0Y-89.3
X107.0Y-91.84
X107.0Y-94.38
X107.0Y-96.92
X107.0Y-99.46
X107.0Y-102.0
X107.0Y-104.54
X107.0Y-107.08
X107.0Y-109.62
X107.0Y-112.16
X107.0Y-114.7
T3
X117.0Y-69.92
X117.0Y-72.46
X117.0Y-75.0
X117.0Y-87.46
X117.0Y-90.0
X117.0Y-92.54
X117.0Y-95.08
X117.0Y-111.46
X117.0Y-114.0
X117.0Y-116.54
X117.0Y-119.08
T4
X68.0Y-78.0
X68.0Y-83.0
X68.0Y-96.0
X68.0Y-101.0
X68.632Y-113.0
X68.632Y-118.0
M30
